<svg width="21" height="24" viewBox="0 0 21 24" fill="none" xmlns="http://www.w3.org/2000/svg">
<path d="M10.3061 11.8284C11.0925 11.8284 11.7299 11.1808 11.7299 10.382C11.7299 9.58314 11.0925 8.93555 10.3061 8.93555C9.51975 8.93555 8.88227 9.58314 8.88227 10.382C8.88227 11.1808 9.51975 11.8284 10.3061 11.8284Z" fill="white"/>
<path d="M11.9436 6.62131C12.0148 6.76595 12.1571 6.9106 12.2995 6.98292C12.4419 7.05524 12.5131 7.12756 12.7267 7.19988C12.9403 7.27221 13.2962 7.27221 13.581 7.27221L16.2151 4.45166L11.9436 6.62131Z" fill="white"/>
<path d="M14.1504 4.30701C13.652 4.45166 12.8689 4.66862 12.3706 4.81327C12.0858 4.88559 11.8011 5.17487 11.7299 5.53648C11.6587 5.75345 11.6587 6.04273 11.7299 6.2597L17.1404 3.51147C16.1438 3.72844 15.1471 4.01773 14.1504 4.30701Z" fill="white"/>
<path d="M13.7234 7.41679C13.7234 7.7784 13.7234 8.06769 13.7946 8.28465C13.8657 8.4293 13.9369 8.57394 14.0081 8.64626C14.0793 8.79091 14.2217 8.86323 14.3641 8.93555L16.2863 4.52393L13.7234 7.41679Z" fill="white"/>
<path d="M17.2829 3.58374L14.7912 9.15251C15.0048 9.15251 15.2184 9.15251 15.5031 9.15251C15.8591 9.08019 16.0727 8.7909 16.1439 8.50162C16.2863 7.99536 16.4998 7.1275 16.571 6.62125C16.8558 5.60875 17.0694 4.59624 17.2829 3.58374Z" fill="white"/>
<path d="M19.7035 6.18737C19.2763 5.24718 18.7068 4.307 17.9949 3.51146L16.0727 11.5392C16.0015 11.9008 15.9303 12.1901 15.7879 12.5517C15.2184 14.0704 14.0793 15.2276 12.6555 15.8062C11.3029 16.3847 9.66546 16.5294 8.17043 15.8785C5.18038 14.7213 3.68535 11.2499 4.82441 8.21238C5.39395 6.69362 6.53302 5.53647 7.95685 4.9579C8.384 4.74093 8.81115 4.59629 9.30949 4.52397L17.0694 2.6436C16.2151 1.84806 15.1472 1.19717 13.937 0.690917C11.3029 -0.321586 8.52638 -0.176943 6.10587 0.835561C3.75654 1.92039 1.76318 3.87307 0.695304 6.54898C-1.36925 11.9008 1.33603 17.9758 6.53302 20.0008L14.5777 23.183C15.3608 23.4723 16.2151 23.1106 16.4999 22.3151L19.6323 14.0704C20.9137 11.4669 20.7714 8.64631 19.7035 6.18737Z" fill="white"/>
</svg>
