<svg width="17" height="16" viewBox="0 0 17 16" fill="none" xmlns="http://www.w3.org/2000/svg">
<g clip-path="url(#clip0_12_2749)">
<path d="M13.2721 4.67734L10.6306 4.29349L9.44921 1.89991C8.99312 0.975598 7.67372 0.975255 7.2174 1.89988L6.03606 4.29349L3.39453 4.67734C2.37454 4.82552 1.96657 6.08018 2.70488 6.79992L4.61631 8.66311L4.1651 11.2939C3.99085 12.3097 5.05791 13.0855 5.97069 12.6058L8.33331 11.3636L10.696 12.6058C11.6098 13.0861 12.6754 12.3074 12.5015 11.2939L12.0503 8.66311L13.9617 6.79992C14.6998 6.08043 14.2925 4.82562 13.2721 4.67734Z" fill="white"/>
<path d="M4.54365 1.4737L3.90581 0.595823C3.73265 0.357574 3.39912 0.304731 3.16087 0.477886C2.92259 0.651011 2.86978 0.984541 3.0429 1.22282L3.68074 2.10069C3.85399 2.33907 4.18755 2.39172 4.42568 2.21863C4.66396 2.04554 4.71677 1.71198 4.54365 1.4737Z" fill="white"/>
<path d="M2.42695 9.34086C2.33592 9.06076 2.03511 8.90733 1.75492 8.99845L0.701958 9.34061C0.421834 9.43158 0.268553 9.73249 0.359552 10.0126C0.45074 10.2933 0.752176 10.446 1.03158 10.355L2.08458 10.0129C2.3647 9.92192 2.51798 9.62102 2.42695 9.34086Z" fill="white"/>
<path d="M13.5057 0.477895C13.2675 0.30474 12.934 0.357552 12.7608 0.595832L12.123 1.4737C11.9498 1.71198 12.0027 2.04555 12.2409 2.21864C12.4793 2.39183 12.8128 2.33889 12.9859 2.1007L13.6237 1.22283C13.7969 0.98455 13.744 0.65102 13.5057 0.477895Z" fill="white"/>
<path d="M15.9647 9.34063L14.9117 8.99848C14.6315 8.90729 14.3307 9.06076 14.2396 9.34088C14.1486 9.621 14.3019 9.92187 14.582 10.0129L15.635 10.355C15.9146 10.446 16.2159 10.2931 16.3071 10.0126C16.3981 9.73253 16.2448 9.43166 15.9647 9.34063Z" fill="white"/>
<path d="M8.3333 13.4751C8.03877 13.4751 7.79999 13.7139 7.79999 14.0084V15.0908C7.79999 15.3854 8.03877 15.6242 8.3333 15.6242C8.62783 15.6242 8.86661 15.3854 8.86661 15.0908V14.0084C8.86664 13.7139 8.62786 13.4751 8.3333 13.4751Z" fill="white"/>
</g>
<defs>
<clipPath id="clip0_12_2749">
<rect width="16" height="16" fill="white" transform="translate(0.333313)"/>
</clipPath>
</defs>
</svg>
