<svg width="24" height="25" viewBox="0 0 24 25" fill="none" xmlns="http://www.w3.org/2000/svg">
<g clip-path="url(#clip0_2_1196)">
<path d="M20.4844 14.729H20.4275C19.9796 14.729 19.5908 14.4103 19.503 13.9711L18.3196 8.05424L16.2656 6.00027L15.7685 6.49748C15.4107 6.85527 14.8919 7.26613 14.4509 7.1908C13.6602 7.05585 12.9079 5.48769 12.3587 4.34273C11.9415 3.4731 11.5812 2.72212 11.1378 2.27877L10.6929 1.83374L2.62112 8.29105C3.51044 9.4027 14.3802 22.9899 14.5215 23.1665H24V18.2446C24 16.3061 22.4229 14.729 20.4844 14.729V14.729ZM11.0908 4.95093C11.8483 6.52996 12.7069 8.31969 14.2143 8.57694C14.8741 8.68949 15.5516 8.4816 16.2348 7.95815L17.0242 8.74752L17.3768 10.5103H14.1563V11.9165H17.658L17.9392 13.3228H15.5625V14.729H18.2764C18.6448 15.5667 19.4834 16.1353 20.4275 16.1353H20.4844C21.6475 16.1353 22.5938 17.0815 22.5938 18.2446V18.9478H16.5493L6.7938 6.75379L10.5021 3.78716C10.6909 4.11754 10.8928 4.53843 11.0908 4.95093V4.95093ZM15.1973 21.7603L4.5977 8.51071L5.6957 7.63232L15.8735 20.354H22.5938V21.7603H15.1973Z" fill="white"/>
<path d="M0 16.1353H5.625V17.5415H0V16.1353Z" fill="white"/>
<path d="M2.8125 18.9478H8.4375V20.354H2.8125V18.9478Z" fill="white"/>
<path d="M5.625 21.7603H11.25V23.1665H5.625V21.7603Z" fill="white"/>
</g>
<defs>
<clipPath id="clip0_2_1196">
<rect width="24" height="24" fill="white" transform="translate(0 0.5)"/>
</clipPath>
</defs>
</svg>
