<svg width="42" height="42" viewBox="0 0 42 42" fill="none" xmlns="http://www.w3.org/2000/svg">
<g clip-path="url(#clip0_204_65)">
<path d="M20.9999 0C9.40193 0 0 9.40193 0 20.9999C0 32.5978 9.40193 42.0001 20.9999 42.0001C32.5978 42.0001 42.0001 32.5978 42.0001 20.9999C41.9871 9.40732 32.5928 0.0130737 20.9999 0V0ZM20.9999 39.8999C10.5617 39.8999 2.09987 31.4381 2.09987 20.9999C2.09987 10.5617 10.5617 2.09987 20.9999 2.09987C31.4381 2.09987 39.8999 10.5617 39.8999 20.9999C39.888 31.4331 31.4331 39.888 20.9999 39.8999Z" fill="white"/>
<path d="M18.5412 12.8592C18.1044 12.4774 17.4411 12.522 17.0593 12.9584C16.6779 13.3952 16.7225 14.0585 17.1589 14.4404L24.6555 20.9995L17.1585 27.5591C16.7217 27.9409 16.6775 28.6042 17.0589 29.0406C17.4407 29.4774 18.104 29.522 18.5409 29.1402L26.9407 21.7901C27.1687 21.5909 27.2995 21.3025 27.2995 20.9995C27.2995 20.6965 27.1687 20.4085 26.9407 20.209L18.5412 12.8592Z" fill="white"/>
</g>
<defs>
<clipPath id="clip0_204_65">
<rect width="42" height="42" fill="white"/>
</clipPath>
</defs>
</svg>
