<svg width="42" height="42" viewBox="0 0 42 42" fill="none" xmlns="http://www.w3.org/2000/svg">
<g clip-path="url(#clip0_35_58)">
<path d="M21.0001 0C32.5981 0 42 9.40193 42 20.9999C42 32.5978 32.5981 42.0001 21.0001 42.0001C9.40219 42.0001 -0.0001297 32.5978 -0.0001297 20.9999C0.0129433 9.40732 9.40719 0.0130737 21.0001 0V0ZM21.0001 39.8999C31.4383 39.8999 39.9001 31.4381 39.9001 20.9999C39.9001 10.5617 31.4383 2.09987 21.0001 2.09987C10.5619 2.09987 2.10013 10.5617 2.10013 20.9999C2.11205 31.4331 10.5669 39.888 21.0001 39.8999Z" fill="white"/>
<path d="M23.4588 12.8595C23.8956 12.4776 24.5589 12.5222 24.9407 12.9587C25.3221 13.3955 25.2775 14.0588 24.8411 14.4406L17.3445 20.9998L24.8415 27.5593C25.2783 27.9411 25.3225 28.6044 24.9411 29.0409C24.5593 29.4777 23.896 29.5223 23.4591 29.1405L15.0593 21.7903C14.8313 21.5912 14.7005 21.3028 14.7005 20.9998C14.7005 20.6968 14.8313 20.4088 15.0593 20.2092L23.4588 12.8595Z" fill="white"/>
</g>
<defs>
<clipPath id="clip0_35_58">
<rect width="42" height="42" fill="white" transform="matrix(-1 0 0 1 42 0)"/>
</clipPath>
</defs>
</svg>
