<svg width="16" height="16" viewBox="0 0 16 16" fill="none" xmlns="http://www.w3.org/2000/svg">
<g clip-path="url(#clip0_2_955)">
<path d="M7.99996 0C6.4177 0 4.87098 0.469192 3.55539 1.34824C2.23979 2.22729 1.21441 3.47672 0.608907 4.93853C0.00340523 6.40034 -0.155022 8.00887 0.153661 9.56072C0.462343 11.1126 1.22427 12.538 2.34309 13.6569C3.46191 14.7757 4.88738 15.5376 6.43923 15.8463C7.99108 16.155 9.59962 15.9965 11.0614 15.391C12.5232 14.7855 13.7727 13.7602 14.6517 12.4446C15.5308 11.129 16 9.58225 16 8C16 5.87827 15.1571 3.84344 13.6568 2.34315C12.1565 0.842855 10.1217 0 7.99996 0V0ZM12.1179 5.89474C12.1179 5.98526 12.1252 6.07579 12.1252 6.16947C12.1252 8.97684 9.98733 12.2158 6.0768 12.2158C4.9197 12.2204 3.78613 11.8891 2.81363 11.2621C2.98227 11.2832 3.15211 11.293 3.32205 11.2916C4.27582 11.2917 5.20219 10.9726 5.95364 10.3853C5.51083 10.3722 5.08291 10.2224 4.7286 9.9565C4.37428 9.69057 4.11094 9.32153 3.97469 8.9C4.10741 8.92629 4.24257 8.93829 4.37784 8.93579C4.56572 8.93742 4.75297 8.91406 4.93469 8.86632C4.45416 8.76687 4.02257 8.50491 3.71256 8.12454C3.40255 7.74416 3.23304 7.2686 3.23258 6.77789V6.75474C3.52691 6.91787 3.85618 7.00777 4.19258 7.01684C3.74189 6.71568 3.42323 6.25377 3.30173 5.72551C3.18023 5.19725 3.26506 4.64254 3.5389 4.17474C4.07144 4.83272 4.73682 5.37093 5.49157 5.7542C6.24632 6.13747 7.07345 6.35717 7.9189 6.39895C7.88453 6.23988 7.86793 6.07748 7.86943 5.91474C7.86907 5.48838 7.99701 5.07178 8.23662 4.71913C8.47623 4.36647 8.81641 4.09408 9.21293 3.93738C9.60945 3.78068 10.0439 3.74693 10.4599 3.84051C10.8759 3.9341 11.254 4.15068 11.5452 4.46211C12.0204 4.36866 12.4761 4.19456 12.8926 3.94737C12.7354 4.44023 12.4028 4.85825 11.9579 5.12211C12.38 5.06965 12.7923 4.95655 13.1821 4.78632C12.898 5.2177 12.5373 5.59338 12.1179 5.89474Z" fill="white"/>
</g>
<defs>
<clipPath id="clip0_2_955">
<rect width="16" height="16" fill="white"/>
</clipPath>
</defs>
</svg>
