<svg width="16" height="16" viewBox="0 0 16 16" fill="none" xmlns="http://www.w3.org/2000/svg">
<g clip-path="url(#clip0_2_964)">
<path d="M7.99995 0C6.4177 0 4.87098 0.469192 3.55539 1.34824C2.23979 2.22729 1.21441 3.47672 0.608907 4.93853C0.00340527 6.40034 -0.155022 8.00887 0.153661 9.56072C0.462343 11.1126 1.22427 12.538 2.34309 13.6569C3.46191 14.7757 4.88738 15.5376 6.43923 15.8463C7.99108 16.155 9.59961 15.9965 11.0614 15.391C12.5232 14.7855 13.7727 13.7602 14.6517 12.4446C15.5308 11.129 16 9.58225 16 8C16 5.87827 15.1571 3.84344 13.6568 2.34315C12.1565 0.842855 10.1217 0 7.99995 0V0ZM13 4.20909L12.2018 4.97182C12.1677 4.99707 12.1412 5.03119 12.1252 5.07047C12.1091 5.10974 12.1042 5.15266 12.1109 5.19455V10.8064C12.1043 10.8481 12.1093 10.8909 12.1253 10.93C12.1413 10.9691 12.1678 11.0031 12.2018 11.0282L12.9809 11.7918V11.9582H9.05995V11.7909L9.86814 11.0091C9.94632 10.9309 9.94632 10.9064 9.94632 10.7864V6.25273L7.69995 11.9436H7.39541L4.78268 6.25273V10.0709C4.77157 10.15 4.77883 10.2306 4.8039 10.3064C4.82897 10.3823 4.87117 10.4513 4.92722 10.5082L5.97722 11.7809V11.9482H2.99995V11.7836L4.04995 10.5109C4.10591 10.453 4.14711 10.3824 4.17005 10.3052C4.193 10.228 4.19701 10.1464 4.18177 10.0673V5.65727C4.18744 5.5968 4.17898 5.53584 4.15705 5.4792C4.13512 5.42256 4.10032 5.37179 4.0554 5.33091L3.12631 4.20909V4.04182H6.0245L8.26541 8.94545L10.2354 4.04182H13V4.20909Z" fill="white"/>
</g>
<defs>
<clipPath id="clip0_2_964">
<rect width="16" height="16" fill="white"/>
</clipPath>
</defs>
</svg>
