<svg width="1920" height="412" viewBox="0 0 1920 412" fill="none" xmlns="http://www.w3.org/2000/svg">
<g clip-path="url(#clip0_235_311)">
<path d="M0 72C0 72 445 203 960 72C1269.5 516.999 1920 72 1920 72L1916 413.5H-4L0 72Z" fill="#EEF1FD"/>
<g filter="url(#filter0_d_235_311)">
<path d="M-142 138.267C-36.5 61.266 78 53.766 175 85.9064C286.253 122.769 403.5 175.405 515 145.906C626.5 116.406 847.5 -12.0941 1082.5 169.406C1317.5 350.906 1393 316.406 1553 219.406C1713 122.406 1909 29.9059 2120.5 169.406" stroke="white" stroke-width="120"/>
</g>
<path d="M-142 138.267C-36.5 61.266 78 53.766 175 85.9064C286.253 122.769 403.5 175.405 515 145.906C626.5 116.406 847.5 -12.0941 1082.5 169.406C1317.5 350.906 1393 316.406 1553 219.406C1713 122.406 1909 29.9059 2120.5 169.406" stroke="url(#paint0_linear_235_311)" stroke-width="80"/>
<path d="M-142 138.267C-36.5 61.266 78 53.766 175 85.9064C286.253 122.769 403.5 175.405 515 145.906C626.5 116.406 847.5 -12.0941 1082.5 169.406C1317.5 350.906 1393 316.406 1553 219.406C1713 122.406 1909 29.9059 2120.5 169.406" stroke="white" stroke-width="5" stroke-linecap="round" stroke-dasharray="30 30"/>
</g>
<defs>
<filter id="filter0_d_235_311" x="-206.372" y="-11.9902" width="2388.91" height="408.914" filterUnits="userSpaceOnUse" color-interpolation-filters="sRGB">
<feFlood flood-opacity="0" result="BackgroundImageFix"/>
<feColorMatrix in="SourceAlpha" type="matrix" values="0 0 0 0 0 0 0 0 0 0 0 0 0 0 0 0 0 0 127 0" result="hardAlpha"/>
<feOffset dy="9"/>
<feGaussianBlur stdDeviation="14.5"/>
<feComposite in2="hardAlpha" operator="out"/>
<feColorMatrix type="matrix" values="0 0 0 0 0 0 0 0 0 0 0 0 0 0 0 0 0 0 0.18 0"/>
<feBlend mode="normal" in2="BackgroundImageFix" result="effect1_dropShadow_235_311"/>
<feBlend mode="normal" in="SourceGraphic" in2="effect1_dropShadow_235_311" result="shape"/>
</filter>
<linearGradient id="paint0_linear_235_311" x1="-142" y1="298.925" x2="2074.63" y2="-1544.06" gradientUnits="userSpaceOnUse">
<stop stop-color="#F44369"/>
<stop offset="1" stop-color="#3D2DFF"/>
</linearGradient>
<clipPath id="clip0_235_311">
<rect width="1920" height="412" fill="white"/>
</clipPath>
</defs>
</svg>
