<svg width="191" height="34" viewBox="0 0 191 34" fill="none" xmlns="http://www.w3.org/2000/svg">
<g clip-path="url(#clip0_2_1031)">
<path d="M176.1 17.1504C177.205 17.1504 178.1 16.255 178.1 15.1504C178.1 14.0458 177.205 13.1504 176.1 13.1504C174.995 13.1504 174.1 14.0458 174.1 15.1504C174.1 16.255 174.995 17.1504 176.1 17.1504Z" fill="#0974F1"/>
<path d="M178.4 9.9502C178.5 10.1502 178.7 10.3502 178.9 10.4502C179.1 10.5502 179.2 10.6502 179.5 10.7502C179.8 10.8502 180.3 10.8502 180.7 10.8502L184.4 6.9502L178.4 9.9502Z" fill="#F44369"/>
<path d="M181.5 6.75039C180.8 6.95039 179.7 7.25039 179 7.45039C178.6 7.55039 178.2 7.95039 178.1 8.45039C178 8.75039 178 9.15039 178.1 9.45039L185.7 5.65039C184.3 5.95039 182.9 6.35039 181.5 6.75039Z" fill="#F44369"/>
<path d="M180.9 11.0503C180.9 11.5503 180.9 11.9503 181 12.2503C181.1 12.4503 181.2 12.6503 181.3 12.7503C181.4 12.9503 181.6 13.0503 181.8 13.1503L184.5 7.05029L180.9 11.0503Z" fill="#F44369"/>
<path d="M185.9 5.75049L182.4 13.4505C182.7 13.4505 183 13.4505 183.4 13.4505C183.9 13.3505 184.2 12.9505 184.3 12.5505C184.5 11.8505 184.8 10.6505 184.9 9.95049C185.3 8.55049 185.6 7.15049 185.9 5.75049Z" fill="#F44369"/>
<path d="M189.3 9.35026C188.7 8.05026 187.9 6.75026 186.9 5.65026L184.2 16.7503C184.1 17.2503 184 17.6503 183.8 18.1503C183 20.2503 181.4 21.8503 179.4 22.6503C177.5 23.4503 175.2 23.6503 173.1 22.7503C168.9 21.1503 166.8 16.3503 168.4 12.1503C169.2 10.0503 170.8 8.45026 172.8 7.65026C173.4 7.35026 174 7.15026 174.7 7.05026L185.6 4.45026C184.4 3.35026 182.9 2.45026 181.2 1.75026C177.5 0.350261 173.6 0.550261 170.2 1.95026C166.9 3.45026 164.1 6.15026 162.6 9.85026C159.7 17.2503 163.5 25.6503 170.8 28.4503L182.1 32.8503C183.2 33.2503 184.4 32.7503 184.8 31.6503L189.2 20.2503C191 16.6503 190.8 12.7503 189.3 9.35026Z" fill="#0974F1"/>
<path d="M17.9 12.4502L11.4 21.3502L5 12.4502H0.5V33.0502H4.4V18.0502L11 27.0502H11.8L18.5 18.0502V33.0502H22.4V12.4502H17.9Z" fill="#0974F1"/>
<path d="M46 20.3504C45.8 19.4504 45.5 18.6504 45.2 17.9504C44.8 17.1504 44.4 16.4504 43.8 15.8504C43.2 15.1504 42.6 14.6504 41.8 14.1504C41 13.6504 40.2 13.2504 39.2 13.0504C38.2 12.8504 37.2 12.6504 36.1 12.6504C35 12.6504 33.9 12.7504 33 13.0504C32.1 13.3504 31.2 13.7504 30.4 14.1504C29.6 14.6504 29 15.2504 28.4 15.8504C27.8 16.5504 27.4 17.2504 27 17.9504C26.6 18.7504 26.3 19.5504 26.2 20.3504C26 21.2504 25.9 22.0504 25.9 22.9504C25.9 23.8504 26 24.6504 26.2 25.5504C26.4 26.3504 26.7 27.1504 27 27.9504C27.4 28.7504 27.8 29.4504 28.4 30.0504C29 30.6504 29.6 31.2504 30.4 31.7504C31.2 32.2504 32 32.5504 33 32.8504C34 33.1504 35 33.2504 36.2 33.2504C37.4 33.2504 38.4 33.1504 39.4 32.8504C40.3 32.5504 41.2 32.2504 41.9 31.7504C42.7 31.2504 43.3 30.7504 43.9 30.0504C44.5 29.3504 44.9 28.6504 45.3 27.9504C45.7 27.1504 45.9 26.3504 46.1 25.5504C46.3 24.7504 46.4 23.8504 46.4 23.0504C46.3 22.0504 46.2 21.1504 46 20.3504ZM42.4 24.5504C42.3 25.0504 42.1 25.6504 41.9 26.1504C41.7 26.6504 41.4 27.1504 41.1 27.5504C40.8 27.9504 40.4 28.3504 39.9 28.6504C39.4 28.9504 38.9 29.2504 38.2 29.4504C37.6 29.6504 36.9 29.7504 36.1 29.7504C34.9 29.7504 33.9 29.5504 33.1 29.1504C32.3 28.7504 31.6 28.2504 31.1 27.5504C30.6 26.9504 30.2 26.1504 30 25.3504C29.8 24.5504 29.6 23.7504 29.6 22.9504C29.6 22.1504 29.7 21.2504 29.9 20.4504C30.1 19.6504 30.5 18.8504 31 18.1504C31.5 17.4504 32.2 16.9504 33 16.4504C33.8 16.0504 34.8 15.8504 36 15.8504C36.8 15.8504 37.5 15.9504 38.1 16.1504C38.7 16.3504 39.3 16.6504 39.8 16.9504C40.3 17.2504 40.7 17.6504 41 18.1504C41.3 18.6504 41.6 19.0504 41.9 19.6504C42.1 20.1504 42.3 20.7504 42.4 21.2504C42.5 21.8504 42.5 22.3504 42.5 22.9504C42.6 23.4504 42.5 24.0504 42.4 24.5504Z" fill="#F44369"/>
<path d="M64.6 12.4502L58.4 28.5502L52.2 12.4502H47.8L56.4 33.1502H60.4L69 12.4502H64.6V12.4502Z" fill="#0974F1"/>
<path d="M86.7 16.2502V12.4502H71.3V33.0502H86.7V29.2502H75.1V24.5502H86.3V20.9502H75.1V16.2502H86.7V16.2502Z" fill="#0974F1"/>
<path d="M104.6 12.4502H100.4L91.1 33.0502H95.3L97.1 29.1502H107.9L109.6 33.0502H113.8L104.6 12.4502ZM98.6 25.5502L102.4 16.7502L106.2 25.5502H98.6Z" fill="#0974F1"/>
<path d="M127.3 25.7502C128.3 25.5502 129.1 25.2502 129.8 24.8502C130.5 24.4502 131 23.9502 131.4 23.3502C131.8 22.7502 132.1 22.1502 132.3 21.4502C132.5 20.7502 132.6 20.0502 132.6 19.3502C132.6 18.4502 132.4 17.6502 132.1 16.7502C131.8 15.9502 131.3 15.2502 130.7 14.5502C130.1 13.9502 129.3 13.4502 128.4 13.0502C127.5 12.6502 126.4 12.4502 125.2 12.4502C123.6 12.4502 121.9 12.4502 120.3 12.4502C118.7 12.4502 117 12.4502 115.4 12.4502V16.6502L119.3 19.3502V16.0502H125.2C125.8 16.0502 126.3 16.1502 126.8 16.3502C127.2 16.5502 127.6 16.7502 127.9 17.0502C128.2 17.3502 128.4 17.7502 128.5 18.1502C128.6 18.5502 128.7 18.9502 128.7 19.3502C128.7 19.7502 128.6 20.1502 128.5 20.5502C128.4 20.9502 128.1 21.2502 127.9 21.6502C127.6 21.9502 127.2 22.2502 126.8 22.4502C126.4 22.6502 125.8 22.7502 125.2 22.7502H119.3H115.4V33.1502H119.3V26.2502H123L129 33.1502H133.6V32.8502L127.3 25.7502Z" fill="#0974F1"/>
<path d="M148.7 12.4502V25.2502L138.6 12.4502H135.5V33.0502H139.4V19.1502L150.3 33.0502H152.7V12.4502H148.7Z" fill="#0974F1"/>
<path d="M36 20.1504C34.5 20.1504 33.2 21.3504 33.2 22.9504C33.2 24.4504 34.4 25.7504 36 25.7504C37.5 25.7504 38.8 24.5504 38.8 22.9504C38.7 21.4504 37.5 20.1504 36 20.1504ZM36 25.4504C34.6 25.4504 33.6 24.3504 33.6 23.0504C33.6 21.6504 34.7 20.6504 36 20.6504C37.4 20.6504 38.4 21.7504 38.4 23.0504C38.4 24.3504 37.3 25.4504 36 25.4504Z" fill="#F44369"/>
<path d="M36 23.7504C36.4418 23.7504 36.8 23.3922 36.8 22.9504C36.8 22.5086 36.4418 22.1504 36 22.1504C35.5582 22.1504 35.2 22.5086 35.2 22.9504C35.2 23.3922 35.5582 23.7504 36 23.7504Z" fill="#F44369"/>
</g>
<defs>
<clipPath id="clip0_2_1031">
<rect width="190" height="32.3" fill="white" transform="translate(0.5 0.850098)"/>
</clipPath>
</defs>
</svg>
