<svg width="134" height="151" viewBox="0 0 134 151" fill="none" xmlns="http://www.w3.org/2000/svg">
<g clip-path="url(#clip0_18_751)">
<path d="M66.5214 76.3204C71.7698 76.3204 76.0245 72.0644 76.0245 66.8145C76.0245 61.5645 71.7698 57.3086 66.5214 57.3086C61.273 57.3086 57.0184 61.5645 57.0184 66.8145C57.0184 72.0644 61.273 76.3204 66.5214 76.3204Z" fill="#0974F1"/>
<path d="M84.1602 38.639C84.1602 38.7074 84.2286 38.7074 84.2286 38.7758C84.7072 39.528 85.2541 40.1435 86.0061 40.6222C86.6214 41.0325 87.3051 41.3745 88.0572 41.648C89.3561 42.0584 90.9286 42.1951 92.6378 41.99L106.721 27.2866L84.1602 38.639Z" fill="#F44369"/>
<path d="M96.1245 26.329C93.5949 27.0129 89.2878 28.3123 86.5531 29.0645C84.8439 29.5432 83.5449 30.911 83.2715 32.6891C83.0664 33.9884 83.0664 35.2194 83.2715 36.3136L112.054 21.8154C106.585 23.32 101.32 24.8245 96.1245 26.329Z" fill="#F44369"/>
<path d="M93.5949 42.8786C93.4582 44.5883 93.6633 46.1612 94.1419 47.4606C94.4153 48.2129 94.8255 48.8967 95.2357 49.5122C95.7827 50.1961 96.4664 50.7432 97.15 51.2219C97.2184 51.2219 97.2184 51.2903 97.2868 51.2903L107.61 28.2437L93.5949 42.8786Z" fill="#F44369"/>
<path d="M112.738 22.8414L99.6796 51.9745C100.773 52.1797 102.004 52.1113 103.303 51.8378C105.012 51.4274 106.38 50.0597 106.79 48.35C107.473 45.6145 108.499 41.2377 109.114 38.7073C110.413 33.4415 111.644 28.1072 112.943 22.6362L112.738 22.8414Z" fill="#F44369"/>
<path d="M128.326 40.0067C125.522 33.715 121.762 27.7653 117.182 22.5678L104.739 74.5424C104.329 76.7308 103.713 78.8509 102.825 80.9709C98.9959 90.8871 91.4755 98.273 82.451 102.239C73.4265 106.206 62.898 106.753 52.9847 102.923C33.0898 95.1955 23.3133 72.9695 31.0388 53.0687C34.8674 43.1525 42.3878 35.7666 51.4123 31.8001C54.2837 30.5692 57.2919 29.6117 60.3684 29.0646L111.576 16.96C105.764 11.7625 98.9276 7.5225 91.202 4.51345C73.9735 -2.18855 55.5827 -1.23112 39.9265 5.67604C24.2704 12.5832 11.2806 25.4401 4.51226 42.6054C-8.9561 77.0728 8.6143 116.327 43.0714 129.731L96.0561 150.316C101.115 152.299 106.79 149.769 108.704 144.708L129.419 91.2974C136.188 74.0637 135.231 55.7358 128.326 40.0067Z" fill="#0974F1"/>
</g>
<defs>
<clipPath id="clip0_18_751">
<rect width="134" height="151" fill="white"/>
</clipPath>
</defs>
</svg>
