<svg width="90" height="90" viewBox="0 0 90 90" fill="none" xmlns="http://www.w3.org/2000/svg">
<path d="M85.7812 73.125H54.8438C54.0661 73.125 53.4375 73.755 53.4375 74.5312V77.3438H36.5625V74.5312C36.5625 73.755 35.9339 73.125 35.1562 73.125H9.84375V35.1562C9.84375 34.3814 10.4738 33.75 11.25 33.75H14.0625C14.0625 40.9289 16.5262 47.5383 20.6452 52.7934L16.2464 54.9928C15.7697 55.2305 15.4688 55.717 15.4688 56.25V59.3212C13.8361 59.9034 12.6562 61.4503 12.6562 63.2812C12.6562 65.6072 14.5491 67.5 16.875 67.5C19.2009 67.5 21.0938 65.6072 21.0938 63.2812C21.0938 61.4503 19.9139 59.9034 18.2812 59.3212V57.1191L22.538 54.99C23.9147 56.4455 25.4292 57.7659 27.0633 58.9331V62.1337C25.4306 62.7159 24.2508 64.2628 24.2508 66.0938C24.2508 68.4197 26.1436 70.3125 28.4695 70.3125C30.7955 70.3125 32.6883 68.4197 32.6883 66.0938C32.6883 64.2628 31.5084 62.7159 29.8758 62.1337V60.7233C33.9666 63.0267 38.6283 64.4273 43.5938 64.6509V66.3525C41.9611 66.9347 40.7812 68.4816 40.7812 70.3125C40.7812 72.6384 42.6741 74.5312 45 74.5312C47.3259 74.5312 49.2188 72.6384 49.2188 70.3125C49.2188 68.4816 48.0389 66.9347 46.4062 66.3525V64.6509C51.5123 64.4217 56.2964 62.9452 60.4688 60.525V62.1337C58.8361 62.7159 57.6562 64.2628 57.6562 66.0938C57.6562 68.4197 59.5491 70.3125 61.875 70.3125C64.2009 70.3125 66.0938 68.4197 66.0938 66.0938C66.0938 64.2628 64.9139 62.7159 63.2812 62.1337V58.687C64.7845 57.5817 66.1823 56.3428 67.462 54.99L71.7188 57.1191V59.3212C70.0861 59.9034 68.9062 61.4503 68.9062 63.2812C68.9062 65.6072 70.7991 67.5 73.125 67.5C75.4509 67.5 77.3438 65.6072 77.3438 63.2812C77.3438 61.4503 76.1639 59.9034 74.5312 59.3212V56.25C74.5312 55.717 74.2303 55.2305 73.7536 54.9914L69.3548 52.792C73.4737 47.5383 75.9375 40.9289 75.9375 33.75H78.75C79.5263 33.75 80.1562 34.3814 80.1562 35.1562V68.9062C80.1562 69.6825 80.7848 70.3125 81.5625 70.3125C82.3402 70.3125 82.9688 69.6825 82.9688 68.9062V35.1562C82.9688 32.8303 81.0759 30.9375 78.75 30.9375H75.8039C74.378 15.1917 61.11 2.8125 45 2.8125C37.8225 2.8125 30.8292 5.32688 25.3069 9.89016C24.7078 10.3852 24.6234 11.2711 25.1184 11.8702C25.612 12.4678 26.4966 12.5536 27.097 12.0586C32.1187 7.91016 38.475 5.625 45 5.625C60.5081 5.625 73.125 18.2419 73.125 33.75C73.125 49.2581 60.5081 61.875 45 61.875C29.4919 61.875 16.875 49.2581 16.875 33.75C16.875 27.2278 19.1602 20.8687 23.3072 15.847C23.8036 15.248 23.7178 14.362 23.1188 13.867C22.5169 13.3706 21.6323 13.4564 21.1402 14.0555C17.1745 18.855 14.7628 24.7641 14.1961 30.9361H11.25C8.92406 30.9361 7.03125 32.8289 7.03125 35.1548V73.1236H4.21875C3.44109 73.1236 2.8125 73.7536 2.8125 74.5298V80.1548C2.8125 84.0319 5.96672 87.1861 9.84375 87.1861H52.0312C52.8089 87.1861 53.4375 86.5561 53.4375 85.7798C53.4375 85.0036 52.8089 84.3736 52.0312 84.3736H9.84375C7.51781 84.3736 5.625 82.4808 5.625 80.1548V75.9361H33.75V78.7486C33.75 79.5248 34.3786 80.1548 35.1562 80.1548H54.8438C55.6214 80.1548 56.25 79.5248 56.25 78.7486V75.9361H84.375V80.1548C84.375 82.4808 82.4822 84.3736 80.1562 84.3736H57.6562C56.8786 84.3736 56.25 85.0036 56.25 85.7798C56.25 86.5561 56.8786 87.1861 57.6562 87.1861H80.1562C84.0333 87.1861 87.1875 84.0319 87.1875 80.1548V74.5298C87.1875 73.755 86.5589 73.125 85.7812 73.125ZM16.875 64.6875C16.0988 64.6875 15.4688 64.0561 15.4688 63.2812C15.4688 62.5064 16.0988 61.875 16.875 61.875C17.6512 61.875 18.2812 62.5064 18.2812 63.2812C18.2812 64.0561 17.6512 64.6875 16.875 64.6875ZM28.4695 67.5C27.6933 67.5 27.0633 66.8686 27.0633 66.0938C27.0633 65.3189 27.6933 64.6875 28.4695 64.6875C29.2458 64.6875 29.8758 65.3189 29.8758 66.0938C29.8758 66.8686 29.2458 67.5 28.4695 67.5ZM61.875 67.5C61.0988 67.5 60.4688 66.8686 60.4688 66.0938C60.4688 65.3189 61.0988 64.6875 61.875 64.6875C62.6512 64.6875 63.2812 65.3189 63.2812 66.0938C63.2812 66.8686 62.6512 67.5 61.875 67.5ZM73.125 64.6875C72.3487 64.6875 71.7188 64.0561 71.7188 63.2812C71.7188 62.5064 72.3487 61.875 73.125 61.875C73.9013 61.875 74.5312 62.5064 74.5312 63.2812C74.5312 64.0561 73.9013 64.6875 73.125 64.6875ZM45 71.7188C44.2238 71.7188 43.5938 71.0873 43.5938 70.3125C43.5938 69.5377 44.2238 68.9062 45 68.9062C45.7762 68.9062 46.4062 69.5377 46.4062 70.3125C46.4062 71.0873 45.7762 71.7188 45 71.7188Z" fill="url(#paint0_linear_2_741)"/>
<path d="M73.125 81.5625C73.9017 81.5625 74.5312 80.9329 74.5312 80.1562C74.5312 79.3796 73.9017 78.75 73.125 78.75C72.3483 78.75 71.7188 79.3796 71.7188 80.1562C71.7188 80.9329 72.3483 81.5625 73.125 81.5625Z" fill="url(#paint1_linear_2_741)"/>
<path d="M78.75 81.5625C79.5267 81.5625 80.1562 80.9329 80.1562 80.1562C80.1562 79.3796 79.5267 78.75 78.75 78.75C77.9733 78.75 77.3438 79.3796 77.3438 80.1562C77.3438 80.9329 77.9733 81.5625 78.75 81.5625Z" fill="url(#paint2_linear_2_741)"/>
<path d="M11.25 81.5625C12.0267 81.5625 12.6562 80.9329 12.6562 80.1562C12.6562 79.3796 12.0267 78.75 11.25 78.75C10.4733 78.75 9.84375 79.3796 9.84375 80.1562C9.84375 80.9329 10.4733 81.5625 11.25 81.5625Z" fill="url(#paint3_linear_2_741)"/>
<path d="M16.875 81.5625C17.6517 81.5625 18.2812 80.9329 18.2812 80.1562C18.2812 79.3796 17.6517 78.75 16.875 78.75C16.0983 78.75 15.4688 79.3796 15.4688 80.1562C15.4688 80.9329 16.0983 81.5625 16.875 81.5625Z" fill="url(#paint4_linear_2_741)"/>
<path d="M26.7188 35.1562C27.4954 35.1562 28.125 34.5267 28.125 33.75C28.125 32.9733 27.4954 32.3438 26.7188 32.3438C25.9421 32.3438 25.3125 32.9733 25.3125 33.75C25.3125 34.5267 25.9421 35.1562 26.7188 35.1562Z" fill="url(#paint5_linear_2_741)"/>
<path d="M63.2812 35.1562C64.0579 35.1562 64.6875 34.5267 64.6875 33.75C64.6875 32.9733 64.0579 32.3438 63.2812 32.3438C62.5046 32.3438 61.875 32.9733 61.875 33.75C61.875 34.5267 62.5046 35.1562 63.2812 35.1562Z" fill="url(#paint6_linear_2_741)"/>
<path d="M64.8661 49.4058C68.4295 44.8903 70.3125 39.4762 70.3125 33.75C70.3125 19.793 58.957 8.4375 45 8.4375C31.043 8.4375 19.6875 19.793 19.6875 33.75C19.6875 47.707 31.043 59.0625 45 59.0625C50.7262 59.0625 56.1403 57.1795 60.6558 53.6161C61.2661 53.1352 61.3702 52.2506 60.8892 51.6403C60.4097 51.0314 59.5252 50.9273 58.9148 51.4069C54.8986 54.5766 50.0878 56.25 45 56.25C32.5941 56.25 22.5 46.1559 22.5 33.75C22.5 21.3441 32.5941 11.25 45 11.25C57.4059 11.25 67.5 21.3441 67.5 33.75C67.5 38.8378 65.8266 43.65 62.6583 47.6634C62.1773 48.2738 62.2814 49.1569 62.8917 49.6392C63.502 50.1202 64.3852 50.0147 64.8661 49.4058Z" fill="url(#paint7_linear_2_741)"/>
<path d="M32.0217 26.7567C31.3861 26.9058 30.9375 27.4725 30.9375 28.125V39.375C30.9375 40.1513 31.5661 40.7813 32.3438 40.7813C33.1214 40.7813 33.75 40.1513 33.75 39.375V34.0819L36.7102 40.0036C36.952 40.4888 37.4456 40.7813 37.9688 40.7813C38.0756 40.7813 38.1839 40.7686 38.2908 40.7433C38.9264 40.5942 39.375 40.0275 39.375 39.375V28.125C39.375 27.3488 38.7464 26.7188 37.9688 26.7188C37.1911 26.7188 36.5625 27.3488 36.5625 28.125V33.4182L33.6023 27.4964C33.3098 26.9128 32.6517 26.6063 32.0217 26.7567Z" fill="url(#paint8_linear_2_741)"/>
<path d="M49.2188 29.5312C49.9964 29.5312 50.625 28.9012 50.625 28.125C50.625 27.3487 49.9964 26.7188 49.2188 26.7188H43.5938C42.8161 26.7188 42.1875 27.3487 42.1875 28.125V39.375C42.1875 40.1512 42.8161 40.7812 43.5938 40.7812C44.3714 40.7812 45 40.1512 45 39.375V35.1562H47.8125C48.5902 35.1562 49.2188 34.5262 49.2188 33.75C49.2188 32.9738 48.5902 32.3438 47.8125 32.3438H45V29.5312H49.2188Z" fill="url(#paint9_linear_2_741)"/>
<path d="M57.6562 40.7812C58.4339 40.7812 59.0625 40.1512 59.0625 39.375V29.5312H60.4688C61.2464 29.5312 61.875 28.9012 61.875 28.125C61.875 27.3487 61.2464 26.7188 60.4688 26.7188H54.8438C54.0661 26.7188 53.4375 27.3487 53.4375 28.125C53.4375 28.9012 54.0661 29.5312 54.8438 29.5312H56.25V39.375C56.25 40.1512 56.8786 40.7812 57.6562 40.7812Z" fill="url(#paint10_linear_2_741)"/>
<path d="M53.4361 23.9062C53.8903 23.9062 54.3375 23.6869 54.6075 23.2805C55.0392 22.635 54.8649 21.7603 54.218 21.33L45.7805 15.705C45.308 15.39 44.6934 15.39 44.2209 15.705L35.7834 21.33C35.1366 21.7603 34.9622 22.6336 35.3939 23.2805C35.8242 23.9259 36.6947 24.1003 37.3444 23.67L45 18.5653L52.657 23.67C52.8975 23.8303 53.1689 23.9062 53.4361 23.9062Z" fill="url(#paint11_linear_2_741)"/>
<path d="M44.2196 51.795C44.4558 51.9525 44.7286 52.0313 45 52.0313C45.2714 52.0313 45.5442 51.9525 45.7805 51.795L54.218 46.17C54.8649 45.7397 55.0393 44.8664 54.6075 44.2195C54.1772 43.5741 53.3039 43.3983 52.6571 43.83L45 48.9347L37.343 43.83C36.6933 43.3983 35.8228 43.5741 35.3925 44.2195C34.9608 44.865 35.1352 45.7397 35.782 46.17L44.2196 51.795Z" fill="url(#paint12_linear_2_741)"/>
<defs>
<linearGradient id="paint0_linear_2_741" x1="2.8125" y1="87.1861" x2="141.622" y2="75.4062" gradientUnits="userSpaceOnUse">
<stop stop-color="#F44369"/>
<stop offset="1" stop-color="#3D2DFF"/>
</linearGradient>
<linearGradient id="paint1_linear_2_741" x1="71.7187" y1="81.5625" x2="76.3457" y2="81.1698" gradientUnits="userSpaceOnUse">
<stop stop-color="#F44369"/>
<stop offset="1" stop-color="#3D2DFF"/>
</linearGradient>
<linearGradient id="paint2_linear_2_741" x1="77.3437" y1="81.5625" x2="81.9707" y2="81.1698" gradientUnits="userSpaceOnUse">
<stop stop-color="#F44369"/>
<stop offset="1" stop-color="#3D2DFF"/>
</linearGradient>
<linearGradient id="paint3_linear_2_741" x1="9.84375" y1="81.5625" x2="14.4707" y2="81.1698" gradientUnits="userSpaceOnUse">
<stop stop-color="#F44369"/>
<stop offset="1" stop-color="#3D2DFF"/>
</linearGradient>
<linearGradient id="paint4_linear_2_741" x1="15.4687" y1="81.5625" x2="20.0957" y2="81.1698" gradientUnits="userSpaceOnUse">
<stop stop-color="#F44369"/>
<stop offset="1" stop-color="#3D2DFF"/>
</linearGradient>
<linearGradient id="paint5_linear_2_741" x1="25.3125" y1="35.1562" x2="29.9395" y2="34.7636" gradientUnits="userSpaceOnUse">
<stop stop-color="#F44369"/>
<stop offset="1" stop-color="#3D2DFF"/>
</linearGradient>
<linearGradient id="paint6_linear_2_741" x1="61.875" y1="35.1562" x2="66.502" y2="34.7636" gradientUnits="userSpaceOnUse">
<stop stop-color="#F44369"/>
<stop offset="1" stop-color="#3D2DFF"/>
</linearGradient>
<linearGradient id="paint7_linear_2_741" x1="19.6875" y1="59.0625" x2="102.973" y2="51.9947" gradientUnits="userSpaceOnUse">
<stop stop-color="#F44369"/>
<stop offset="1" stop-color="#3D2DFF"/>
</linearGradient>
<linearGradient id="paint8_linear_2_741" x1="30.9375" y1="40.7813" x2="44.8823" y2="40.0712" gradientUnits="userSpaceOnUse">
<stop stop-color="#F44369"/>
<stop offset="1" stop-color="#3D2DFF"/>
</linearGradient>
<linearGradient id="paint9_linear_2_741" x1="42.1875" y1="40.7812" x2="56.1323" y2="40.0712" gradientUnits="userSpaceOnUse">
<stop stop-color="#F44369"/>
<stop offset="1" stop-color="#3D2DFF"/>
</linearGradient>
<linearGradient id="paint10_linear_2_741" x1="53.4375" y1="40.7812" x2="67.3823" y2="40.0712" gradientUnits="userSpaceOnUse">
<stop stop-color="#F44369"/>
<stop offset="1" stop-color="#3D2DFF"/>
</linearGradient>
<linearGradient id="paint11_linear_2_741" x1="35.1569" y1="23.9062" x2="66.5485" y2="17.6903" gradientUnits="userSpaceOnUse">
<stop stop-color="#F44369"/>
<stop offset="1" stop-color="#3D2DFF"/>
</linearGradient>
<linearGradient id="paint12_linear_2_741" x1="35.1555" y1="52.0313" x2="66.5493" y2="45.8147" gradientUnits="userSpaceOnUse">
<stop stop-color="#F44369"/>
<stop offset="1" stop-color="#3D2DFF"/>
</linearGradient>
</defs>
</svg>
