<svg width="90" height="90" viewBox="0 0 90 90" fill="none" xmlns="http://www.w3.org/2000/svg">
<path d="M86.1636 37.9658C84.7898 29.629 81.0357 21.9198 75.3073 15.6711C69.4375 9.26795 61.8495 4.82121 53.3637 2.81133C42.0945 0.142621 30.4608 2.02172 20.6054 8.10305C10.7501 14.184 3.85261 23.7391 1.18355 35.0079C-1.48534 46.2768 0.39394 57.9107 6.47492 67.7662C12.5561 77.6216 22.111 84.5192 33.38 87.1883C36.7248 87.9803 40.0999 88.372 43.453 88.3716C51.3967 88.3715 59.2081 86.173 66.1382 81.8967C66.845 81.4606 67.0644 80.5341 66.6283 79.8272C66.1922 79.1206 65.2658 78.9009 64.5587 79.3372C55.3867 84.9963 44.5606 86.7451 34.0731 84.2615C12.4242 79.1341 -1.01688 57.3499 4.11048 35.7014C9.23785 14.0524 31.0221 0.611253 52.6706 5.73862C60.5677 7.60911 67.6287 11.7465 73.0902 17.7039C78.4227 23.5208 81.9172 30.6964 83.1957 38.455C83.3307 39.2747 84.1059 39.8291 84.9241 39.6945C85.7436 39.5591 86.2986 38.7853 86.1636 37.9658Z" fill="url(#paint0_linear_2_790)"/>
<path d="M89.9367 54.1937C89.7826 53.6792 89.3654 53.2858 88.8427 53.1619L86.0731 52.5061C86.5788 49.6408 86.7967 46.7337 86.7215 43.8441C86.7001 43.0137 86.0108 42.3607 85.1792 42.3796C84.3488 42.4013 83.6933 43.0919 83.7148 43.922C83.7965 47.063 83.5058 50.2269 82.8508 53.3254C82.6819 54.1241 83.1811 54.9116 83.9754 55.0997L85.6146 55.4882L77.7245 63.854L74.4246 52.8379L76.0344 53.2192C76.4302 53.3134 76.8468 53.2426 77.1899 53.0237C77.5327 52.8049 77.7725 52.4567 77.8542 52.0582C79.6996 43.0671 77.9968 33.8453 73.0596 26.0912C68.1121 18.3208 60.4496 12.872 51.4835 10.7483C32.5972 6.27559 13.5935 18.0016 9.12023 36.8879C7.71661 42.8147 7.87148 49.0203 9.56812 54.8339C11.2131 60.4696 14.2701 65.6526 18.4087 69.8224C18.7026 70.1186 19.0895 70.2668 19.476 70.2668C19.8591 70.2668 20.2423 70.1214 20.5356 69.8303C21.125 69.2452 21.1287 68.293 20.5437 67.7034C12.6418 59.7423 9.46529 48.4817 12.047 37.5812C16.1381 20.3086 33.5185 9.58502 50.7908 13.6754C58.9904 15.6177 65.9979 20.6007 70.5229 27.707C74.7591 34.3602 76.3919 42.1946 75.1841 49.9268L72.5836 49.3111C72.0606 49.1868 71.5117 49.3518 71.1429 49.7426C70.7741 50.1334 70.6421 50.6913 70.7963 51.206L75.591 67.2124C75.7452 67.727 76.1623 68.1203 76.6851 68.2443C77.2077 68.3682 77.757 68.2035 78.1258 67.8127L89.5904 55.6573C89.9587 55.2663 90.0909 54.7084 89.9367 54.1937Z" fill="url(#paint1_linear_2_790)"/>
<path d="M62.3452 72.8859C61.9091 72.1791 60.9827 71.9597 60.2757 72.3958C52.9581 76.9111 44.3204 78.3067 35.9531 76.3245C31.7582 75.3312 27.8803 73.5519 24.4266 71.0365C23.7551 70.5475 22.8145 70.6957 22.3256 71.3668C21.8368 72.0381 21.9846 72.9789 22.6559 73.4678C26.434 76.2194 30.6747 78.1653 35.26 79.2513C37.9754 79.8945 40.7157 80.2121 43.4378 80.2121C49.8871 80.2121 56.2287 78.4271 61.8553 74.9554C62.562 74.5193 62.7813 73.5927 62.3452 72.8859Z" fill="url(#paint2_linear_2_790)"/>
<path d="M49.9249 43.4906H36.6688C35.6498 43.4906 34.8208 42.6616 34.8208 41.6426V36.2431C34.8208 35.2241 35.6498 34.3951 36.6688 34.3951H53.2766C54.1072 34.3951 54.7805 33.7217 54.7805 32.8913C54.7805 32.0609 54.107 31.3875 53.2766 31.3875H44.8007V25.9752C44.8007 25.1446 44.1272 24.4714 43.2968 24.4714C42.4665 24.4714 41.793 25.1448 41.793 25.9752V31.3875H36.669C33.9915 31.3875 31.8132 33.5658 31.8132 36.2433V41.6426C31.8132 44.3201 33.9915 46.4983 36.669 46.4983H49.925C50.944 46.4983 51.773 47.3273 51.773 48.3463V53.7458C51.7728 54.7646 50.9439 55.5938 49.9249 55.5938H33.317C32.4865 55.5938 31.8132 56.2672 31.8132 57.0976C31.8132 57.928 32.4867 58.6014 33.317 58.6014H41.793V64.0137C41.793 64.8443 42.4665 65.5175 43.2968 65.5175C44.1272 65.5175 44.8007 64.8441 44.8007 64.0137V58.6014H49.9249C52.6024 58.6014 54.7806 56.4231 54.7806 53.7456V48.3462C54.7806 45.6688 52.6024 43.4906 49.9249 43.4906Z" fill="url(#paint3_linear_2_790)"/>
<defs>
<linearGradient id="paint0_linear_2_790" x1="5.99262e-05" y1="88.3716" x2="141.798" y2="76.416" gradientUnits="userSpaceOnUse">
<stop stop-color="#F44369"/>
<stop offset="1" stop-color="#3D2DFF"/>
</linearGradient>
<linearGradient id="paint1_linear_2_790" x1="8.17059" y1="70.2668" x2="141.997" y2="54.8986" gradientUnits="userSpaceOnUse">
<stop stop-color="#F44369"/>
<stop offset="1" stop-color="#3D2DFF"/>
</linearGradient>
<linearGradient id="paint2_linear_2_790" x1="22.0374" y1="80.2121" x2="81.3625" y2="58.6505" gradientUnits="userSpaceOnUse">
<stop stop-color="#F44369"/>
<stop offset="1" stop-color="#3D2DFF"/>
</linearGradient>
<linearGradient id="paint3_linear_2_790" x1="31.8132" y1="65.5175" x2="69.7846" y2="63.7145" gradientUnits="userSpaceOnUse">
<stop stop-color="#F44369"/>
<stop offset="1" stop-color="#3D2DFF"/>
</linearGradient>
</defs>
</svg>
