<svg width="90" height="90" viewBox="0 0 90 90" fill="none" xmlns="http://www.w3.org/2000/svg">
<path d="M80.1562 57.7978V32.2022C83.3618 31.549 85.7812 28.7081 85.7812 25.3125C85.7812 21.4355 82.627 18.2812 78.75 18.2812C76.6695 18.2812 74.7977 19.1904 73.5093 20.6314L51.9564 8.05131C52.0051 7.71803 52.0312 7.37771 52.0312 7.03125C52.0312 3.15422 48.877 0 45 0C41.123 0 37.9688 3.15422 37.9688 7.03125C37.9688 7.37771 37.9949 7.71803 38.0436 8.05131L16.4907 20.6314C15.2023 19.1904 13.3307 18.2812 11.25 18.2812C7.37297 18.2812 4.21875 21.4355 4.21875 25.3125C4.21875 28.7081 6.6382 31.549 9.84375 32.2022V57.7978C6.6382 58.451 4.21875 61.2919 4.21875 64.6875C4.21875 68.5645 7.37297 71.7188 11.25 71.7188C13.3311 71.7188 15.203 70.8091 16.4916 69.3675L38.0438 81.9473C37.9951 82.2809 37.9688 82.6218 37.9688 82.9686C37.9688 86.8456 41.123 89.9998 45 89.9998C48.877 89.9998 52.0312 86.8456 52.0312 82.9686C52.0312 82.6216 52.0051 82.2809 51.9562 81.9473L73.5084 69.3675C74.797 70.8091 76.6689 71.7188 78.75 71.7188C82.627 71.7188 85.7812 68.5645 85.7812 64.6875C85.7812 61.2919 83.3618 58.451 80.1562 57.7978ZM76.4822 58.0337L63.4915 35.84L73.5091 29.9936C74.4994 31.1012 75.834 31.8946 77.3436 32.2024V57.7979C77.0493 57.8577 76.7623 57.938 76.4822 58.0337ZM46.4062 63.2812V51.8897C47.9159 51.5821 49.2504 50.7885 50.2407 49.6809L72.0914 62.4335C71.9979 62.7091 71.9191 62.9916 71.8603 63.2811H46.4062V63.2812ZM18.1397 63.2812C18.0807 62.9916 18.0021 62.7093 17.9086 62.4336L39.7593 49.6811C40.7496 50.7887 42.0841 51.5821 43.5938 51.8899V63.2812H18.1397ZM12.6562 57.7978V32.2022C14.1659 31.8946 15.5004 31.101 16.4907 29.9934L26.5083 35.8399L13.5178 58.0337C13.2377 57.938 12.9507 57.8577 12.6562 57.7978ZM28.9362 37.257L38.3414 42.7461C38.1011 43.4542 37.9688 44.2118 37.9688 45C37.9688 45.7882 38.1011 46.5458 38.3414 47.2539L16.4907 60.0064C16.3179 59.8133 16.135 59.6294 15.9421 59.4562L28.9362 37.257ZM43.5938 13.921V38.1103C42.0841 38.4179 40.7496 39.2115 39.7593 40.3191L30.3562 34.8312L42.7335 13.6856C43.013 13.7811 43.2997 13.8611 43.5938 13.921ZM47.2665 13.6854L59.6438 34.8311L50.2407 40.3189C49.2504 39.2113 47.9159 38.4179 46.4062 38.1101V13.921C46.7003 13.8611 46.987 13.7811 47.2665 13.6854ZM45 49.2188C43.4939 49.2188 42.1703 48.4246 41.4237 47.2337C41.4054 47.1946 41.3858 47.1558 41.3634 47.1178C41.3399 47.0777 41.3146 47.0394 41.2879 47.0027C40.9649 46.4064 40.7812 45.7242 40.7812 45C40.7812 44.2675 40.9693 43.5781 41.2991 42.9771C41.3209 42.9458 41.3438 42.9158 41.3634 42.8822C41.3852 42.8447 41.4046 42.8066 41.4227 42.7679C42.169 41.5761 43.4932 40.7812 45 40.7812C46.5071 40.7812 47.8317 41.5765 48.578 42.7688C48.596 42.807 48.6149 42.8449 48.6366 42.8822C48.6557 42.9151 48.6784 42.9446 48.6998 42.9753C49.0303 43.5767 49.2188 44.2666 49.2188 45C49.2188 45.7228 49.0358 46.4036 48.7139 46.999C48.6865 47.037 48.6605 47.0765 48.6366 47.1178C48.6148 47.1553 48.5954 47.1934 48.5773 47.2321C47.831 48.4239 46.5068 49.2188 45 49.2188ZM73.5093 60.0064L51.6586 47.2539C51.8989 46.5458 52.0312 45.7882 52.0312 45C52.0312 44.2118 51.8989 43.4542 51.6586 42.7461L61.0638 37.257L74.0579 59.4564C73.865 59.6296 73.6821 59.8133 73.5093 60.0064ZM78.75 21.0938C81.0759 21.0938 82.9688 22.9866 82.9688 25.3125C82.9688 27.6384 81.0759 29.5312 78.75 29.5312C77.2429 29.5312 75.9183 28.736 75.1721 27.5437C75.1542 27.5054 75.1352 27.4676 75.1134 27.4303C75.0897 27.3897 75.064 27.3509 75.0371 27.3136C74.7146 26.7177 74.5312 26.0362 74.5312 25.3125C74.5312 24.58 74.7193 23.8906 75.0491 23.2896C75.0709 23.2583 75.0938 23.2283 75.1134 23.1947C75.1352 23.1572 75.1546 23.1191 75.1727 23.0804C75.919 21.8886 77.2432 21.0938 78.75 21.0938ZM72.0914 23.0585C71.8511 23.7665 71.7188 24.5241 71.7188 25.3125C71.7188 26.1009 71.8511 26.8583 72.0914 27.5664L62.0715 33.4143L49.6912 12.2632C50.188 11.8174 50.6206 11.302 50.9746 10.7327L72.0914 23.0585ZM45 2.8125C47.3259 2.8125 49.2188 4.70531 49.2188 7.03125C49.2188 7.47053 49.1511 7.89434 49.0257 8.29301C49.0252 8.29477 49.0245 8.29635 49.024 8.29811C48.7102 9.2925 48.0372 10.1285 47.1581 10.6543C47.1484 10.6596 47.1386 10.6638 47.1291 10.6692C47.1215 10.6736 47.1147 10.6789 47.1073 10.6835C46.4866 11.0431 45.7673 11.25 45 11.25C44.2329 11.25 43.5136 11.0431 42.8931 10.6836C42.8855 10.6791 42.8787 10.6736 42.8709 10.6692C42.8607 10.6632 42.8502 10.6588 42.8398 10.653C41.9611 10.1269 41.2884 9.29039 40.9751 8.296C40.9751 8.29582 40.9751 8.29582 40.975 8.29564C40.8493 7.89627 40.7812 7.47158 40.7812 7.03125C40.7812 4.70531 42.6741 2.8125 45 2.8125ZM39.0255 10.7327C39.3796 11.302 39.8122 11.8174 40.3089 12.2632L27.9283 33.4143L17.9084 27.5664C18.1487 26.8583 18.2811 26.1007 18.2811 25.3125C18.2811 24.5241 18.1487 23.7667 17.9084 23.0585L39.0255 10.7327ZM7.03125 25.3125C7.03125 22.9866 8.92406 21.0938 11.25 21.0938C12.7571 21.0938 14.0817 21.889 14.828 23.0813C14.846 23.1195 14.8649 23.1574 14.8866 23.1947C14.9057 23.2276 14.9284 23.2571 14.9498 23.2879C15.2803 23.8894 15.4688 24.5793 15.4688 25.3125C15.4688 26.0353 15.2858 26.7159 14.9641 27.3113C14.9367 27.3493 14.9106 27.3888 14.8866 27.4303C14.8648 27.4678 14.8454 27.5059 14.8273 27.5446C14.081 28.7364 12.7568 29.5312 11.25 29.5312C8.92406 29.5312 7.03125 27.6384 7.03125 25.3125ZM11.25 68.9062C8.92406 68.9062 7.03125 67.0134 7.03125 64.6875C7.03125 62.3616 8.92406 60.4688 11.25 60.4688C12.0219 60.4688 12.7455 60.6783 13.3687 61.0418C13.3727 61.0443 13.3764 61.0471 13.3805 61.0495C13.3843 61.0518 13.3886 61.0532 13.3924 61.0555C13.9757 61.4009 14.4687 61.8824 14.8279 62.4563C14.8458 62.4946 14.8648 62.5324 14.8866 62.5697C14.9059 62.6026 14.9284 62.6323 14.9498 62.663C15.2803 63.2644 15.4688 63.9543 15.4688 64.6875C15.4688 65.4084 15.2866 66.0874 14.9665 66.6816C14.9381 66.7206 14.9113 66.7614 14.8866 66.8039C14.8634 66.8438 14.8424 66.8844 14.8236 66.9254C14.0766 68.114 12.7542 68.9062 11.25 68.9062ZM17.9089 66.9403C18.0023 66.665 18.0809 66.3831 18.1397 66.0938H43.5938V76.079C41.6702 76.471 40.0307 77.6515 39.0263 79.2663L17.9089 66.9403ZM45 87.1875C42.6741 87.1875 40.7812 85.2947 40.7812 82.9688C40.7812 80.6428 42.6741 78.75 45 78.75C47.3259 78.75 49.2188 80.6428 49.2188 82.9688C49.2188 85.2947 47.3259 87.1875 45 87.1875ZM50.9738 79.2663C49.9693 77.6515 48.3298 76.471 46.4062 76.079V66.0938H71.8603C71.9191 66.3831 71.9977 66.665 72.0911 66.9403L50.9738 79.2663ZM78.75 68.9062C77.2453 68.9062 75.9227 68.1137 75.1758 66.9245C75.157 66.8837 75.1365 66.8435 75.1134 66.8039C75.0888 66.7617 75.0623 66.7215 75.0342 66.6828C74.7135 66.0883 74.5312 65.4089 74.5312 64.6875C74.5312 63.955 74.7193 63.2656 75.0493 62.6644C75.0711 62.6331 75.0939 62.6031 75.1134 62.5697C75.1352 62.5322 75.1546 62.4941 75.1727 62.4554C75.5318 61.8819 76.0247 61.4007 76.6076 61.0555C76.6115 61.0532 76.6157 61.0518 76.6195 61.0495C76.6236 61.0472 76.6271 61.0443 76.6311 61.042C77.2543 60.6783 77.978 60.4688 78.75 60.4688C81.0759 60.4688 82.9688 62.3616 82.9688 64.6875C82.9688 67.0134 81.0759 68.9062 78.75 68.9062Z" fill="url(#paint0_linear_582_1257)"/>
<defs>
<linearGradient id="paint0_linear_582_1257" x1="4.21875" y1="89.9998" x2="138.573" y2="79.6671" gradientUnits="userSpaceOnUse">
<stop stop-color="#F44369"/>
<stop offset="1" stop-color="#3D2DFF"/>
</linearGradient>
</defs>
</svg>
