<svg width="90" height="90" viewBox="0 0 90 90" fill="none" xmlns="http://www.w3.org/2000/svg">
<path d="M9.21674 55.0151C8.31129 51.7716 7.85215 48.4021 7.85215 45C7.85215 36.2498 10.9311 27.8343 16.547 21.1468C18.7467 23.2982 21.7535 24.6278 25.0661 24.6278C31.7897 24.6278 37.2596 19.1577 37.2596 12.4342C37.2596 11.1642 37.064 9.93937 36.7021 8.7873C39.4119 8.16697 42.1979 7.85215 45.0004 7.85215C54.0113 7.85215 62.4897 11.0106 69.2035 16.8084H66.3544C65.1495 16.8084 64.1693 17.7887 64.1693 18.9935V22.475C64.1693 23.68 65.1496 24.6602 66.3544 24.6602H80.3389C81.6398 24.6602 82.698 23.6018 82.698 22.301V8.31639C82.698 7.11141 81.7177 6.13125 80.5129 6.13125H77.0312C75.8262 6.13125 74.8461 7.11158 74.8461 8.31639V11.3105C66.6313 3.99428 56.1482 0 45 0C40.3748 0 35.8239 0.694863 31.4678 2.06227C29.6058 0.908613 27.4127 0.240469 25.0659 0.240469C18.3422 0.240469 12.8723 5.71061 12.8723 12.4341C12.8723 14.8845 13.6014 17.1666 14.8505 19.08C8.63473 26.2999 5.22246 35.4647 5.22246 45C5.22246 48.4931 5.6751 51.9553 6.56824 55.2981L4.08551 56.0512C3.11924 52.4644 2.62951 48.7489 2.62951 45C2.62951 36.0123 5.38928 27.4475 10.6103 20.2317C11.0361 19.6434 10.9042 18.8214 10.3159 18.3959C9.72773 17.9701 8.90561 18.1021 8.48004 18.6903C2.93238 26.3575 0 35.4553 0 45C0 49.1407 0.563027 53.244 1.67326 57.1961C1.9698 58.3513 3.28254 59.0704 4.41316 58.6995L7.7458 57.6888C8.87309 57.3469 9.53279 56.1475 9.21674 55.0151ZM75.2215 15.3004C75.5954 15.6821 76.163 15.7992 76.6575 15.5974C77.1522 15.3954 77.4754 14.9143 77.4754 14.3801V8.76076H80.0684V22.0307H66.7985V19.4377H72.5147C73.0433 19.4377 73.5205 19.1211 73.726 18.634C73.9315 18.147 73.8253 17.5843 73.4564 17.2055C65.9287 9.47812 55.8227 5.22246 45 5.22246C41.8294 5.22246 38.6777 5.59846 35.6205 6.34008C35.1466 5.5227 34.5813 4.76525 33.9372 4.08182C37.5226 3.11871 41.2346 2.62969 45 2.62969C56.4829 2.62951 67.2158 7.12951 75.2215 15.3004ZM25.0659 2.86998C30.3395 2.86998 34.63 7.16045 34.63 12.4341C34.63 17.7077 30.3395 21.9981 25.0659 21.9981C19.7923 21.9981 15.5018 17.7077 15.5018 12.4341C15.5018 7.16045 19.7923 2.86998 25.0659 2.86998Z" fill="url(#paint0_linear_2_770)"/>
<path d="M74.9603 74.9605C66.9577 82.9631 56.3177 87.3705 45 87.3705C39.0649 87.3705 33.3322 86.1759 27.961 83.8199C27.2958 83.5283 26.5206 83.8306 26.2288 84.4958C25.937 85.1607 26.2397 85.9363 26.9047 86.2279C32.6109 88.7308 38.6991 90 45 90C57.0199 90 68.3204 85.3193 76.8197 76.8197C77.3332 76.3063 77.3332 75.4738 76.8197 74.9603C76.3063 74.447 75.4738 74.447 74.9603 74.9605Z" fill="url(#paint1_linear_2_770)"/>
<path d="M88.2262 32.4519C88.061 31.8813 87.682 31.4125 87.1592 31.1316C86.6377 30.8514 86.0391 30.7942 85.4738 30.9706L82.15 32.0085C81.0255 32.3596 80.3755 33.564 80.7008 34.6938C81.7119 38.2034 82.1974 41.8558 82.144 45.5493C81.9993 55.5532 77.9738 64.8647 70.8086 71.7689C63.6332 78.6829 54.1612 82.3642 44.1383 82.1384C35.4551 81.9417 27.2802 78.7873 20.7916 73.1874H23.6459C24.8509 73.1874 25.8311 72.2071 25.8311 71.0023V67.5206C25.8311 66.3158 24.8507 65.3354 23.6459 65.3354H9.66147C8.36051 65.3354 7.30231 66.3938 7.30231 67.6946V81.6791C7.30231 82.884 8.28264 83.8642 9.48744 83.8642H12.9691C14.1741 83.8642 15.1543 82.8839 15.1543 81.6791V78.6878C17.1285 80.4431 19.2514 82.0208 21.493 83.397C22.1121 83.777 22.9213 83.5831 23.3012 82.9644C23.6811 82.3454 23.4874 81.536 22.8686 81.1561C19.9304 79.3522 17.2085 77.1803 14.7786 74.7002C14.4046 74.3186 13.8371 74.2013 13.3425 74.4031C12.8479 74.6051 12.5248 75.0862 12.5248 75.6204V81.235H9.93182V67.9651H23.2017V70.5581H17.4797C16.9511 70.5581 16.4739 70.8747 16.2684 71.3617C16.0627 71.8487 16.1689 72.4113 16.5377 72.7901C23.8279 80.2767 33.6089 84.5304 44.0787 84.7675C44.3911 84.7746 44.7026 84.7781 45.0141 84.7781C55.3964 84.7781 65.1728 80.8513 72.6332 73.6627C80.3071 66.2685 84.6185 56.2978 84.7732 45.5876C84.8282 41.7832 84.3485 38.0185 83.3469 34.3898L85.8233 33.6166C86.85 37.3068 87.3703 41.1344 87.3703 45.0005C87.3703 54.3224 84.4191 63.1457 78.8358 70.5164C78.3974 71.0953 78.5111 71.92 79.09 72.3584C79.6688 72.7968 80.4934 72.6829 80.932 72.1042C86.8642 64.2723 90 54.8998 90 45C90 40.7349 89.4032 36.5131 88.2262 32.4519Z" fill="url(#paint2_linear_2_770)"/>
<path d="M24.9534 63.4832H65.3947C67.8475 63.4832 69.843 61.4877 69.843 59.0351V32.3327C69.843 29.8798 67.8475 27.8843 65.3947 27.8843H63.9432C62.6444 24.4805 59.3369 22.1646 55.6407 22.1646C55.3716 22.1646 55.103 22.1799 54.8357 22.204C54.2152 17.9075 50.51 14.5951 46.0445 14.5951C41.1458 14.5951 37.1603 18.5804 37.1603 23.4793C37.1603 25.0328 37.5752 26.5526 38.3344 27.8842H24.9534C22.5005 27.8842 20.5052 29.8796 20.5052 32.3325V39.3641H20.2836C18.592 39.3641 17.2158 40.7403 17.2158 42.4318V48.9355C17.2158 50.6271 18.592 52.0033 20.2836 52.0033H20.5052V59.0349C20.5052 61.4877 22.5007 63.4832 24.9534 63.4832ZM61.0356 27.8843H53.7629C54.2988 26.9494 54.6595 25.9249 54.8244 24.8491C55.0942 24.814 55.3671 24.7943 55.6407 24.7943C57.8881 24.7941 59.931 26.01 61.0356 27.8843ZM39.7898 23.4794C39.7898 20.0306 42.5957 17.2248 46.0445 17.2248C49.4933 17.2248 52.2991 20.0306 52.2991 23.4794C52.2991 25.1472 51.6539 26.7054 50.4821 27.8843H41.6067C40.4344 26.7057 39.7898 25.1506 39.7898 23.4794ZM23.1347 36.2761H24.3339C25.0601 36.2761 25.6488 35.6874 25.6488 34.9613C25.6488 34.2351 25.0601 33.6464 24.3339 33.6464H23.1347V32.3325C23.1347 31.3296 23.9505 30.5137 24.9534 30.5137H65.3947C66.3975 30.5137 67.2135 31.3296 67.2135 32.3325V59.0347C67.2135 60.0375 66.3975 60.8533 65.3947 60.8533H24.9534C23.9505 60.8533 23.1347 60.0375 23.1347 59.0347V57.7206H24.3339C25.0601 57.7206 25.6488 57.1319 25.6488 56.4057C25.6488 55.6796 25.0601 55.0909 24.3339 55.0909H23.1347V52.0029H31.9372C33.6287 52.0029 35.0049 50.6267 35.0049 48.9352V42.4315C35.0049 40.7399 33.6287 39.3637 31.9372 39.3637H23.1347V36.2761ZM19.8452 48.9357V42.432C19.8452 42.1903 20.0419 41.9938 20.2834 41.9938H31.937C32.1787 41.9938 32.3752 42.1905 32.3752 42.432V48.9357C32.3752 49.1774 32.1785 49.3739 31.937 49.3739H20.2834C20.0419 49.3739 19.8452 49.1772 19.8452 48.9357Z" fill="url(#paint3_linear_2_770)"/>
<path d="M21.5119 18.1784C22.2676 18.6664 22.8521 18.8965 23.5136 18.9988V19.2211C23.5136 19.9473 24.1022 20.536 24.8284 20.536C25.5545 20.536 26.1432 19.9473 26.1432 19.2211V18.8571C27.6646 18.3433 28.6369 16.9868 28.8622 15.6473C29.1735 13.7955 28.1705 12.1227 26.3665 11.485C25.4542 11.1625 24.4477 10.7749 23.9008 10.3461C23.8177 10.2807 23.7602 10.0614 23.8082 9.80718C23.8329 9.67534 23.9479 9.23466 24.3817 9.10405C25.3392 8.81577 25.9483 9.29442 26.0146 9.34997L25.9935 9.33099L26.357 9.48269C27.649 10.0222 28.7518 8.40233 27.7764 7.39792C27.456 7.10243 26.8849 6.74437 26.1436 6.54257V6.34341C26.1436 5.61726 25.5549 5.02856 24.8287 5.02856C24.1026 5.02856 23.5139 5.61726 23.5139 6.34341V6.62343C22.3376 7.02245 21.4646 8.04444 21.2242 9.32009C20.9944 10.539 21.3982 11.725 22.2782 12.4152C23.1221 13.0771 24.3207 13.5508 25.4902 13.9644C26.2614 14.237 26.3396 14.793 26.2691 15.2116C26.1701 15.8008 25.6743 16.4375 24.8198 16.4431C23.8628 16.4498 23.6122 16.4102 22.9011 15.9449C22.2495 15.5188 21.3604 15.7452 21.0022 16.463C20.6986 17.0705 20.9415 17.8101 21.5119 18.1784Z" fill="url(#paint4_linear_2_770)"/>
<path d="M27.1586 44.5432H25.0659C24.3397 44.5432 23.751 45.1318 23.751 45.858C23.751 46.5842 24.3397 47.1728 25.0659 47.1728H27.1586C27.8847 47.1728 28.4734 46.5842 28.4734 45.858C28.4732 45.1317 27.8845 44.5432 27.1586 44.5432Z" fill="url(#paint5_linear_2_770)"/>
<path d="M40.3539 36.2762H44.8508C45.5769 36.2762 46.1656 35.6875 46.1656 34.9613C46.1656 34.2352 45.5769 33.6465 44.8508 33.6465H40.3539C39.6278 33.6465 39.0391 34.2352 39.0391 34.9613C39.0391 35.6877 39.6278 36.2762 40.3539 36.2762Z" fill="url(#paint6_linear_2_770)"/>
<path d="M50.6324 36.2762H55.1292C55.8554 36.2762 56.4441 35.6875 56.4441 34.9613C56.4441 34.2352 55.8554 33.6465 55.1292 33.6465H50.6324C49.9062 33.6465 49.3175 34.2352 49.3175 34.9613C49.3177 35.6877 49.9062 36.2762 50.6324 36.2762Z" fill="url(#paint7_linear_2_770)"/>
<path d="M35.8868 34.9615C35.8868 34.2354 35.2981 33.6467 34.572 33.6467H30.0751C29.349 33.6467 28.7603 34.2354 28.7603 34.9615C28.7603 35.6877 29.349 36.2764 30.0751 36.2764H34.572C35.2983 36.2762 35.8868 35.6877 35.8868 34.9615Z" fill="url(#paint8_linear_2_770)"/>
<path d="M60.6962 36.2761H61.8954V37.4753C61.8954 38.2015 62.4841 38.7901 63.2102 38.7901C63.9364 38.7901 64.5251 38.2015 64.5251 37.4753V35.8319C64.5251 34.6269 63.5447 33.6468 62.3399 33.6468H60.6966C59.9704 33.6468 59.3817 34.2355 59.3817 34.9616C59.3814 35.6876 59.9701 36.2761 60.6962 36.2761Z" fill="url(#paint9_linear_2_770)"/>
<path d="M63.2101 42.0706C62.4839 42.0706 61.8952 42.6593 61.8952 43.3855V48.0145C61.8952 48.7406 62.4839 49.3293 63.2101 49.3293C63.9362 49.3293 64.5249 48.7406 64.5249 48.0145V43.3855C64.5249 42.6593 63.9362 42.0706 63.2101 42.0706Z" fill="url(#paint10_linear_2_770)"/>
<path d="M60.6962 57.7209H62.3396C63.5446 57.7209 64.5247 56.7406 64.5247 55.5358V53.8924C64.5247 53.1663 63.936 52.5776 63.2099 52.5776C62.4837 52.5776 61.895 53.1663 61.895 53.8924V55.0916H60.6959C59.9697 55.0916 59.381 55.6803 59.381 56.4064C59.3814 57.1322 59.9701 57.7209 60.6962 57.7209Z" fill="url(#paint11_linear_2_770)"/>
<path d="M34.3978 55.0913H29.9009C29.1748 55.0913 28.5861 55.68 28.5861 56.4062C28.5861 57.1323 29.1748 57.721 29.9009 57.721H34.3978C35.1239 57.721 35.7126 57.1323 35.7126 56.4062C35.7124 55.6798 35.1237 55.0913 34.3978 55.0913Z" fill="url(#paint12_linear_2_770)"/>
<path d="M40.1794 57.7209H44.6762C45.4024 57.7209 45.9911 57.1322 45.9911 56.4061C45.9911 55.6799 45.4024 55.0912 44.6762 55.0912H40.1794C39.4532 55.0912 38.8645 55.6799 38.8645 56.4061C38.8647 57.1322 39.4532 57.7209 40.1794 57.7209Z" fill="url(#paint13_linear_2_770)"/>
<path d="M50.458 57.7209H54.9548C55.681 57.7209 56.2697 57.1322 56.2697 56.4061C56.2697 55.6799 55.681 55.0912 54.9548 55.0912H50.458C49.7319 55.0912 49.1432 55.6799 49.1432 56.4061C49.1432 57.1322 49.7319 57.7209 50.458 57.7209Z" fill="url(#paint14_linear_2_770)"/>
<defs>
<linearGradient id="paint0_linear_2_770" x1="-1.06415e-06" y1="58.7976" x2="135.106" y2="42.6718" gradientUnits="userSpaceOnUse">
<stop stop-color="#F44369"/>
<stop offset="1" stop-color="#3D2DFF"/>
</linearGradient>
<linearGradient id="paint1_linear_2_770" x1="26.1177" y1="90" x2="104.571" y2="67.9493" gradientUnits="userSpaceOnUse">
<stop stop-color="#F44369"/>
<stop offset="1" stop-color="#3D2DFF"/>
</linearGradient>
<linearGradient id="paint2_linear_2_770" x1="7.3023" y1="84.7781" x2="142.049" y2="67.2364" gradientUnits="userSpaceOnUse">
<stop stop-color="#F44369"/>
<stop offset="1" stop-color="#3D2DFF"/>
</linearGradient>
<linearGradient id="paint3_linear_2_770" x1="17.2158" y1="63.4832" x2="103.697" y2="55.5829" gradientUnits="userSpaceOnUse">
<stop stop-color="#F44369"/>
<stop offset="1" stop-color="#3D2DFF"/>
</linearGradient>
<linearGradient id="paint4_linear_2_770" x1="20.8706" y1="20.536" x2="34.18" y2="19.9498" gradientUnits="userSpaceOnUse">
<stop stop-color="#F44369"/>
<stop offset="1" stop-color="#3D2DFF"/>
</linearGradient>
<linearGradient id="paint5_linear_2_770" x1="23.751" y1="47.1728" x2="31.3984" y2="46.0074" gradientUnits="userSpaceOnUse">
<stop stop-color="#F44369"/>
<stop offset="1" stop-color="#3D2DFF"/>
</linearGradient>
<linearGradient id="paint6_linear_2_770" x1="39.0391" y1="36.2762" x2="50.2545" y2="33.6969" gradientUnits="userSpaceOnUse">
<stop stop-color="#F44369"/>
<stop offset="1" stop-color="#3D2DFF"/>
</linearGradient>
<linearGradient id="paint7_linear_2_770" x1="49.3175" y1="36.2762" x2="60.533" y2="33.6969" gradientUnits="userSpaceOnUse">
<stop stop-color="#F44369"/>
<stop offset="1" stop-color="#3D2DFF"/>
</linearGradient>
<linearGradient id="paint8_linear_2_770" x1="28.7603" y1="36.2764" x2="39.9757" y2="33.697" gradientUnits="userSpaceOnUse">
<stop stop-color="#F44369"/>
<stop offset="1" stop-color="#3D2DFF"/>
</linearGradient>
<linearGradient id="paint9_linear_2_770" x1="59.3817" y1="38.7901" x2="67.8433" y2="38.0721" gradientUnits="userSpaceOnUse">
<stop stop-color="#F44369"/>
<stop offset="1" stop-color="#3D2DFF"/>
</linearGradient>
<linearGradient id="paint10_linear_2_770" x1="61.8952" y1="49.3293" x2="66.2485" y2="49.1955" gradientUnits="userSpaceOnUse">
<stop stop-color="#F44369"/>
<stop offset="1" stop-color="#3D2DFF"/>
</linearGradient>
<linearGradient id="paint11_linear_2_770" x1="59.381" y1="57.7209" x2="67.8432" y2="57.0028" gradientUnits="userSpaceOnUse">
<stop stop-color="#F44369"/>
<stop offset="1" stop-color="#3D2DFF"/>
</linearGradient>
<linearGradient id="paint12_linear_2_770" x1="28.5861" y1="57.721" x2="39.8015" y2="55.1417" gradientUnits="userSpaceOnUse">
<stop stop-color="#F44369"/>
<stop offset="1" stop-color="#3D2DFF"/>
</linearGradient>
<linearGradient id="paint13_linear_2_770" x1="38.8645" y1="57.7209" x2="50.08" y2="55.1416" gradientUnits="userSpaceOnUse">
<stop stop-color="#F44369"/>
<stop offset="1" stop-color="#3D2DFF"/>
</linearGradient>
<linearGradient id="paint14_linear_2_770" x1="49.1432" y1="57.7209" x2="60.3586" y2="55.1416" gradientUnits="userSpaceOnUse">
<stop stop-color="#F44369"/>
<stop offset="1" stop-color="#3D2DFF"/>
</linearGradient>
</defs>
</svg>
