<svg width="85" height="86" viewBox="0 0 85 86" fill="none" xmlns="http://www.w3.org/2000/svg">
<path d="M74.3438 62.6875H71.0426L67.9489 55.6562H68.7188C69.0917 55.6562 69.4494 55.5081 69.7132 55.2444C69.9769 54.9806 70.125 54.623 70.125 54.25C70.125 53.877 69.9769 53.5194 69.7132 53.2556C69.4494 52.9919 69.0917 52.8438 68.7188 52.8438H66.7113L65.4738 50.0312H65.9063C66.2792 50.0312 66.6369 49.8831 66.9006 49.6194C67.1644 49.3556 67.3125 48.998 67.3125 48.625C67.3125 48.252 67.1644 47.8944 66.9006 47.6306C66.6369 47.3669 66.2792 47.2188 65.9063 47.2188H64.2364L62.9988 44.4062H63.0938C63.4667 44.4062 63.8244 44.2581 64.0881 43.9944C64.3519 43.7306 64.5 43.373 64.5 43C64.5 42.627 64.3519 42.2694 64.0881 42.0056C63.8244 41.7419 63.4667 41.5938 63.0938 41.5938H61.7613L60.5147 38.7603C60.8608 38.7 61.1717 38.5123 61.3864 38.2343C61.601 37.9562 61.7038 37.6079 61.6746 37.2578C61.6453 36.9077 61.4861 36.5813 61.2282 36.3427C60.9704 36.1042 60.6326 35.9708 60.2813 35.9688H59.2863L56.0625 28.6418V23.3125C56.0622 23.0593 56.0392 22.8067 55.9936 22.5577L75.3382 3.21314C75.5348 3.01648 75.6688 2.7659 75.7231 2.49311C75.7773 2.22032 75.7495 1.93756 75.643 1.68059C75.5366 1.42363 75.3563 1.204 75.1251 1.04948C74.8938 0.894959 74.6219 0.81249 74.3438 0.8125H34.9688C34.7841 0.812493 34.6012 0.848861 34.4306 0.919528C34.26 0.990194 34.105 1.09377 33.9744 1.22436L30.7414 4.4575C29.938 3.74165 28.8915 3.35973 27.8158 3.38982C26.7402 3.41991 25.7166 3.85975 24.9545 4.61939L5.84937 23.7244L3.99751 25.5762C2.82225 26.7515 1.88999 28.1467 1.25394 29.6822C0.617896 31.2178 0.290527 32.8635 0.290527 34.5256C0.290527 36.1876 0.617896 37.8334 1.25394 39.369C1.88999 40.9045 2.82225 42.2997 3.99751 43.475L17.7188 57.1961C18.1096 57.5891 18.5745 57.9006 19.0866 58.1128C19.5986 58.3249 20.1476 58.4333 20.7018 58.4318H25.125C25.4978 58.4323 25.8553 58.5805 26.1189 58.8442C26.3826 59.1078 26.5308 59.4653 26.5313 59.8381V64.3351C26.5298 64.8893 26.6382 65.4383 26.8503 65.9504C27.0625 66.4624 27.374 66.9273 27.767 67.3181L39.458 79.0093C41.4122 80.9742 43.7367 82.532 46.297 83.5924C48.8572 84.6529 51.6024 85.1951 54.3736 85.1875H77.1563C79.0204 85.1854 80.8076 84.4439 82.1258 83.1258C83.444 81.8076 84.1854 80.0204 84.1875 78.1562V72.5312C84.1846 69.9214 83.1465 67.4194 81.3011 65.574C79.4557 63.7285 76.9536 62.6905 74.3438 62.6875ZM74.3438 65.5C76.2079 65.5021 77.9951 66.2436 79.3133 67.5617C80.6315 68.8799 81.3729 70.6671 81.375 72.5312V73.9375H64.4587C62.4265 73.943 60.4134 73.5455 58.5358 72.7678C56.6583 71.9901 54.9537 70.8478 53.5205 69.4069L16.732 32.6184C18.5239 30.3753 19.5 27.5897 19.5 24.7188C19.5 21.8478 18.5239 19.0622 16.732 16.8191L20.9063 12.6449V13.5109C20.8999 15.9124 21.3699 18.2912 22.2889 20.5098C23.208 22.7284 24.5579 24.7427 26.2606 26.4361L33.2514 33.427C34.9448 35.1296 36.9591 36.4795 39.1777 37.3986C41.3963 38.3176 43.7752 38.7876 46.1766 38.7812H50.4199L51.6574 41.5938H47.625C47.2521 41.5938 46.8944 41.7419 46.6307 42.0056C46.3669 42.2694 46.2188 42.627 46.2188 43C46.2188 43.373 46.3669 43.7306 46.6307 43.9944C46.8944 44.2581 47.2521 44.4062 47.625 44.4062H52.8949L54.1324 47.2188H50.4375C50.0646 47.2188 49.7069 47.3669 49.4432 47.6306C49.1794 47.8944 49.0313 48.252 49.0313 48.625C49.0313 48.998 49.1794 49.3556 49.4432 49.6194C49.7069 49.8831 50.0646 50.0312 50.4375 50.0312H55.3699L56.6074 52.8438H53.25C52.8771 52.8438 52.5194 52.9919 52.2557 53.2556C51.9919 53.5194 51.8438 53.877 51.8438 54.25C51.8438 54.623 51.9919 54.9806 52.2557 55.2444C52.5194 55.5081 52.8771 55.6562 53.25 55.6562H57.8449L60.3284 61.3006C60.8782 62.5494 61.7793 63.6113 62.9221 64.357C64.0648 65.1026 65.3998 65.4998 66.7643 65.5H74.3438ZM67.9699 62.6875H66.7643C65.9456 62.6873 65.1446 62.4491 64.4589 62.0017C63.7733 61.5543 63.2326 60.9171 62.9027 60.1679L60.9176 55.6562H64.8762L67.9699 62.6875ZM63.6387 52.8438H59.6801L58.4426 50.0312H62.4012L63.6387 52.8438ZM61.1637 47.2188H57.2051L55.9676 44.4062H59.9262L61.1637 47.2188ZM54.7301 41.5938L53.4926 38.7812H57.4512L58.6887 41.5938H54.7301ZM52.2551 35.9688L49.7801 30.3438H53.7387L56.2137 35.9688H52.2551ZM53.25 27.5312H46.66C46.5123 27.5312 46.3654 27.527 46.2188 27.5205V23.3125C46.2192 22.9397 46.3675 22.5822 46.6311 22.3186C46.8947 22.055 47.2522 21.9067 47.625 21.9062H51.8438C52.2166 21.9067 52.574 22.055 52.8377 22.3186C53.1013 22.5822 53.2496 22.9397 53.25 23.3125V27.5312ZM35.5511 3.625H70.9489L54.52 20.0539C53.7667 19.4324 52.8204 19.0928 51.8438 19.0938H47.625C46.5065 19.095 45.4342 19.5399 44.6433 20.3308C43.8524 21.1217 43.4075 22.194 43.4063 23.3125V26.9818C42.0105 26.4935 40.7432 25.6958 39.6994 24.6484L35.0394 19.9885C34.1225 19.0765 33.3955 17.9917 32.9006 16.7968C32.4057 15.602 32.1527 14.3208 32.1563 13.0275V7.6024C32.156 7.41971 32.1439 7.23722 32.1202 7.05607L35.5511 3.625ZM26.9431 6.60801C27.1398 6.41133 27.3904 6.27739 27.6632 6.22312C27.9359 6.16886 28.2187 6.19671 28.4757 6.30315C28.7326 6.40959 28.9523 6.58984 29.1068 6.82111C29.2613 7.05237 29.3438 7.32427 29.3438 7.6024V13.0275C29.3393 14.6902 29.6646 16.3372 30.3008 17.8733C30.9371 19.4094 31.8718 20.8041 33.0506 21.9766L37.7106 26.6365C38.8831 27.8155 40.2778 28.7502 41.8139 29.3866C43.3501 30.0229 44.9972 30.3483 46.66 30.3438H46.7074L49.1824 35.9688H46.1766C44.1446 35.9743 42.1317 35.5768 40.2543 34.7993C38.377 34.0217 36.6725 32.8796 35.2395 31.4389L28.2486 24.448C26.808 23.0151 25.6658 21.3106 24.8882 19.4332C24.1107 17.5559 23.7132 15.5429 23.7188 13.5109V9.83236L26.9431 6.60801ZM14.7286 18.8225C16.0004 20.5252 16.6875 22.5935 16.6875 24.7188C16.6875 26.844 16.0004 28.9123 14.7286 30.615L8.83238 24.7188L14.7286 18.8225ZM77.1563 82.375H72.9375V80.9688C72.9375 80.5958 72.7894 80.2381 72.5257 79.9744C72.2619 79.7107 71.9042 79.5625 71.5313 79.5625C71.1583 79.5625 70.8006 79.7107 70.5369 79.9744C70.2732 80.2381 70.125 80.5958 70.125 80.9688V82.375H61.6875V80.9688C61.6875 80.5958 61.5394 80.2381 61.2756 79.9744C61.0119 79.7107 60.6542 79.5625 60.2813 79.5625C59.9083 79.5625 59.5506 79.7107 59.2869 79.9744C59.0232 80.2381 58.875 80.5958 58.875 80.9688V82.375H54.3736C50.0781 82.3871 45.9177 80.8746 42.6328 78.1069L45.8074 74.9324C46.0713 74.6685 46.2196 74.3107 46.2196 73.9375C46.2196 73.5643 46.0713 73.2065 45.8074 72.9426C45.5436 72.6787 45.1857 72.5305 44.8125 72.5305C44.4394 72.5305 44.0815 72.6787 43.8176 72.9426L40.5938 76.1669L34.1456 69.7188L37.3699 66.4949C37.6338 66.231 37.7821 65.8732 37.7821 65.5C37.7821 65.1268 37.6338 64.7689 37.3699 64.5051C37.1061 64.2412 36.7482 64.093 36.375 64.093C36.0019 64.093 35.644 64.2412 35.3801 64.5051L32.1563 67.7294L29.7556 65.3295C29.6246 65.1992 29.5208 65.0442 29.4501 64.8735C29.3794 64.7029 29.3433 64.5198 29.3438 64.3351V59.8381C29.3425 58.7196 28.8976 57.6473 28.1067 56.8564C27.3158 56.0655 26.2435 55.6206 25.125 55.6193H20.7018C20.5171 55.6198 20.3341 55.5837 20.1634 55.513C19.9927 55.4423 19.8377 55.3385 19.7074 55.2075L14.495 49.9949L17.6824 46.8074C17.9463 46.5436 18.0945 46.1857 18.0945 45.8125C18.0945 45.4393 17.9463 45.0814 17.6824 44.8176C17.4186 44.5537 17.0607 44.4055 16.6875 44.4055C16.3143 44.4055 15.9565 44.5537 15.6926 44.8176L12.5052 48.005L6.05749 41.5574L9.24494 38.3699C9.50881 38.1061 9.65705 37.7482 9.65705 37.375C9.65705 37.0018 9.50881 36.6439 9.24494 36.3801C8.98107 36.1162 8.62318 35.968 8.25001 35.968C7.87685 35.968 7.51896 36.1162 7.25509 36.3801L4.33589 39.2993C3.30042 37.4292 2.90143 35.273 3.19915 33.1562C3.49688 31.0394 4.47515 29.0769 5.9863 27.565L6.84376 26.7074L51.5319 71.3955C53.2255 73.0984 55.2401 74.4485 57.459 75.3676C59.6779 76.2867 62.057 76.7566 64.4587 76.75H81.375V78.1562C81.3738 79.2747 80.9289 80.3471 80.138 81.138C79.3471 81.9289 78.2748 82.3737 77.1563 82.375Z" fill="url(#paint0_linear_2_761)"/>
<defs>
<linearGradient id="paint0_linear_2_761" x1="0.290526" y1="85.1876" x2="138.325" y2="73.5401" gradientUnits="userSpaceOnUse">
<stop stop-color="#F44369"/>
<stop offset="1" stop-color="#3D2DFF"/>
</linearGradient>
</defs>
</svg>
